# xmcd
#
# Track frame offsets:
#       150
#       18467
#       35627
#       51757
#       68792
#       88430
#       103220
#       118187
#       130457
#       145540
#       164460
#
# Disc length: 2376 seconds
#
# Revision: 2
# Processed by: cddbd v1.4PL0 Copyright (c) Steve Scherf et al.
# Submitted via: CD-DA_X-Tractor v0.22
#
DISCID=a309460b
DTITLE=Gina Jeffreys - Angel
DYEAR=1900
DGENRE=
TTITLE0=Angel
TTITLE1=Just Like The Moon
TTITLE2=Anywhere But Here
TTITLE3=Out Of The Blues
TTITLE4=I'm The One You're Gonna Miss
TTITLE5=When The Blues And My Baby Collide
TTITLE6=Break My Heart
TTITLE7=Waiting On The Real Thing
TTITLE8=I Ain't Gonna Fall For Love Again
TTITLE9=Broken Hearted
TTITLE10=Quilt Of Dreams
EXTD=
EXTT0=
EXTT1=
EXTT2=
EXTT3=
EXTT4=
EXTT5=
EXTT6=
EXTT7=
EXTT8=
EXTT9=
EXTT10=
PLAYORDER=
